<svg xmlns="http://www.w3.org/2000/svg" width="17.115" height="17.117" viewBox="0 0 17.115 17.117">
                  <g id="Icon_akar-edit" data-name="Icon akar-edit" transform="translate(-5.25 -3.602)">
                    <path id="Path_347168" data-name="Path 347168" d="M21.48,6.691l1.927,1.926M22.72,4.994,17.509,10.2a1.927,1.927,0,0,0-.528.984L16.5,13.6l2.409-.482a1.925,1.925,0,0,0,.984-.527L25.1,7.379A1.686,1.686,0,0,0,22.72,4.994Z" transform="translate(-4.131)" fill="none" stroke="#1268f1" stroke-linecap="round" stroke-linejoin="round" stroke-width="1.5"></path>
                    <path id="Path_347169" data-name="Path 347169" d="M19.648,16.6v2.73a1.82,1.82,0,0,1-1.82,1.82H7.82A1.82,1.82,0,0,1,6,19.328V9.32A1.82,1.82,0,0,1,7.82,7.5h2.73" transform="translate(0 -1.18)" fill="none" stroke="#1268f1" stroke-linecap="round" stroke-linejoin="round" stroke-width="1.5"></path>
                  </g>
                </svg>