<svg class="icon-sale-tag " aria-hidden="true" focusable="false" role="presentation" xmlns="http://www.w3.org/2000/svg" width="350" height="350" viewBox="0 0 350 350" fill="none">      <path fill="currentColor" fill-rule="evenodd" clip-rule="evenodd" d="M0 197.826C0 192.95 1.93821 188.275 5.38762 184.83L179.459 10.7587C186.348 3.86966 195.692 -0.000356971 205.435 2.46966e-08H334.782C343.187 2.46966e-08 350 6.81304 350 15.2173V144.565C350 154.308 346.13 163.651 339.241 170.541L165.17 344.612C161.725 348.061 157.049 350 152.174 350C147.299 350 142.624 348.061 139.179 344.612L5.38762 210.821C1.93821 207.376 0 202.701 0 197.826ZM304.348 68.4786C304.348 81.085 294.128 91.3046 281.521 91.3046C268.915 91.3046 258.695 81.085 258.695 68.4786C258.695 55.8721 268.915 45.6525 281.521 45.6525C294.128 45.6525 304.348 55.8721 304.348 68.4786Z"></path>    </svg>