<svg xmlns="http://www.w3.org/2000/svg" width="30" height="30" viewBox="0 0 30 30">
  <g id="Group_185517" data-name="Group 185517" transform="translate(-712 -6280.246)">
    <g id="Path_216722" data-name="Path 216722" transform="translate(712 6280.246)" fill="none">
      <path d="M15,0A15,15,0,1,1,0,15,15,15,0,0,1,15,0Z" stroke="none"/>
      <path d="M 15 1 C 11.26046943664551 1 7.744760513305664 2.456249237060547 5.100509643554688 5.100509643554688 C 2.456249237060547 7.744760513305664 1 11.26046943664551 1 15 C 1 18.73952865600586 2.456249237060547 22.25523948669434 5.100509643554688 24.89949035644531 C 7.744760513305664 27.54375076293945 11.26046943664551 29 15 29 C 18.73952865600586 29 22.25523948669434 27.54375076293945 24.89949035644531 24.89949035644531 C 27.54375076293945 22.25523948669434 29 18.73952865600586 29 15 C 29 11.26046943664551 27.54375076293945 7.744760513305664 24.89949035644531 5.100509643554688 C 22.25523948669434 2.456249237060547 18.73952865600586 1 15 1 M 15 0 C 23.28426933288574 0 30 6.715730667114258 30 15 C 30 23.28426933288574 23.28426933288574 30 15 30 C 6.715730667114258 30 0 23.28426933288574 0 15 C 0 6.715730667114258 6.715730667114258 0 15 0 Z" stroke="none" fill="#001a43"/>
    </g>
    <g id="NNTSTw.tif" transform="translate(724 6288.246)">
      <g id="Group_7470" data-name="Group 7470">
        <path id="Path_4212" data-name="Path 4212" d="M-1422.321,951.413h.985c.087.008.174.019.261.025l.839.062v2.062c-.169,0-.328,0-.488,0-.345.006-.69,0-1.034.026a.76.76,0,0,0-.786.737c-.04.6-.024,1.195-.031,1.792,0,.007.008.014.02.035h2.246l-.3,2.3h-1.977v5.9h-2.37v-5.9h-.159c-.53,0-1.06,0-1.59,0-.079,0-.159-.007-.238-.01v-2.3a.449.449,0,0,0,.061.009h1.827a.965.965,0,0,0,.1-.012c0-.058,0-.112,0-.165.011-.681-.02-1.366.041-2.042a2.593,2.593,0,0,1,2.172-2.443C-1422.6,951.461-1422.461,951.438-1422.321,951.413Z" transform="translate(1426.939 -951.413)" fill="#001a43"/>
      </g>
    </g>
  </g>
</svg>
