<svg xmlns="http://www.w3.org/2000/svg" xmlns:xlink="http://www.w3.org/1999/xlink" width="125.679" height="111.885" viewBox="0 0 125.679 111.885">
  <defs>
    <clipPath id="clip-path">
      <rect id="Rectangle_189083" data-name="Rectangle 189083" width="125.679" height="111.885" fill="none"/>
    </clipPath>
  </defs>
  <g id="Group_206360" data-name="Group 206360" transform="translate(-730 -2367)">
    <g id="Group_206359" data-name="Group 206359">
      <g id="Group_206353" data-name="Group 206353" transform="translate(657.225 1630.668)" opacity="0.514">
        <g id="Group_205784" data-name="Group 205784" transform="translate(72.775 736.332)">
          <g id="Group_205783" data-name="Group 205783" clip-path="url(#clip-path)">
            <path id="Path_345649" data-name="Path 345649" d="M120.126,51.636l-12.82-12.82V20.691a6.086,6.086,0,0,0-6.084-6.084H83.1L70.276,1.786a6.083,6.083,0,0,0-8.61,0l-12.82,12.82H30.72a6.088,6.088,0,0,0-6.093,6.084V38.816l-12.82,12.82a6.1,6.1,0,0,0,0,8.61l12.82,12.82V91.2a6.088,6.088,0,0,0,6.093,6.084H48.846l12.82,12.82a6.1,6.1,0,0,0,8.61,0L83.1,97.286h18.125a6.086,6.086,0,0,0,6.084-6.084V73.067l12.82-12.82a6.083,6.083,0,0,0,0-8.61M112.259,60.8,102.136,70.921V85.245a6.872,6.872,0,0,1-6.872,6.862H80.951L70.829,102.229a6.852,6.852,0,0,1-9.715,0L50.991,92.107H36.678a6.872,6.872,0,0,1-6.872-6.862V70.921L19.684,60.8a6.874,6.874,0,0,1,0-9.715L29.806,40.962V26.648a6.88,6.88,0,0,1,6.872-6.872H50.991L61.114,9.654a6.875,6.875,0,0,1,9.715,0L80.951,19.776H95.265a6.88,6.88,0,0,1,6.872,6.872V40.962l10.122,10.122a6.875,6.875,0,0,1,0,9.715" transform="translate(-3.131 0)" fill="#e0ecff"/>
            <path id="Path_345650" data-name="Path 345650" d="M117.741,59.416a6.829,6.829,0,0,1-2.01,4.853L105.608,74.391V88.714a6.872,6.872,0,0,1-6.872,6.862H84.423L74.3,105.7a6.853,6.853,0,0,1-9.714,0L54.464,95.576H40.15a6.872,6.872,0,0,1-6.872-6.862V74.391L23.156,64.269a6.875,6.875,0,0,1,0-9.714L33.278,44.432V30.118a6.88,6.88,0,0,1,6.872-6.872H54.464L64.586,13.124a6.875,6.875,0,0,1,9.714,0L84.423,23.246H98.737a6.88,6.88,0,0,1,6.872,6.872V44.432l10.123,10.122a6.85,6.85,0,0,1,2.01,4.862" transform="translate(-6.603 -3.47)" fill="#fff"/>
            <path id="Path_345651" data-name="Path 345651" d="M69.438,13.83a4.131,4.131,0,0,1,2.941,1.215L82.5,25.167l.8.8H98.736a4.16,4.16,0,0,1,4.155,4.156V45.557l.8.8L113.8,56.468a4.157,4.157,0,0,1,.007,5.88L103.687,72.47l-.8.8V88.714a4.155,4.155,0,0,1-4.155,4.146H83.3l-.8.8L72.372,103.785a4.137,4.137,0,0,1-5.867-.007L56.383,93.656l-.8-.8H40.149a4.156,4.156,0,0,1-4.155-4.146V73.266l-.8-.8L25.075,62.348a4.158,4.158,0,0,1,0-5.874L35.2,46.352l.8-.8V30.118a4.161,4.161,0,0,1,4.155-4.156h15.44l.8-.8L66.505,15.044a4.119,4.119,0,0,1,2.933-1.215m0-2.716a6.827,6.827,0,0,0-4.853,2.01L54.463,23.246H40.149a6.879,6.879,0,0,0-6.871,6.872V44.432L23.155,54.554a6.875,6.875,0,0,0,0,9.714L33.277,74.391V88.714a6.872,6.872,0,0,0,6.871,6.863H54.463L64.585,105.7a6.852,6.852,0,0,0,9.714,0L84.422,95.577H98.736a6.872,6.872,0,0,0,6.872-6.863V74.391L115.73,64.269a6.875,6.875,0,0,0,0-9.714L105.608,44.432V30.118a6.88,6.88,0,0,0-6.872-6.872H84.422L74.3,13.124a6.833,6.833,0,0,0-4.862-2.01" transform="translate(-6.603 -3.47)" fill="#c6dcff"/>
          </g>
        </g>
      </g>
      <g id="Group_206354" data-name="Group 206354" transform="translate(767 2360.347)">
        <path id="Path_346646" data-name="Path 346646" d="M47.459,63.25l-1.322-5.286a.8.8,0,0,0,.632-.781V56.33a3.36,3.36,0,0,0-3.356-3.356H37.395V51.216a1.653,1.653,0,0,0-1.651-1.651H24.551l6.8-2.721a.8.8,0,1,0-.594-1.484L25.19,47.588a18.781,18.781,0,0,0,4.015-3.125,3.721,3.721,0,1,0-5.918-4.513c-.909,1.192-2.109,4.542-2.885,6.9-.776-2.361-1.976-5.711-2.885-6.9A3.721,3.721,0,1,0,11.6,44.463a18.775,18.775,0,0,0,4.015,3.125l-5.569-2.228a.8.8,0,0,0-.594,1.484l6.8,2.721H5.061a1.653,1.653,0,0,0-1.651,1.651V65.706a.8.8,0,0,0,1.6,0V51.216a.053.053,0,0,1,.053-.053H35.743a.053.053,0,0,1,.053.053V65.706a.8.8,0,0,0,1.6,0V64.8h9.431a2.614,2.614,0,0,1,2.483,1.811H46.823a.8.8,0,0,0-.8.8v1.7a2.506,2.506,0,0,0,2.5,2.5h.906v3.516H47.344a5.059,5.059,0,0,0-9.565,0h-.385V69.115a.8.8,0,1,0-1.6,0v6.019H19.218a5.059,5.059,0,0,0-9.565,0H5.061a.053.053,0,0,1-.053-.053V73.323H8.47a.8.8,0,1,0,0-1.6H.8a.8.8,0,1,0,0,1.6h2.61v1.758a1.653,1.653,0,0,0,1.651,1.651H9.377c0,.018,0,.035,0,.053a5.061,5.061,0,1,0,10.121,0c0-.018,0-.035,0-.053H37.5c0,.018,0,.035,0,.053a5.061,5.061,0,1,0,10.121,0c0-.018,0-.035,0-.053h2.612a.8.8,0,0,0,.8-.8V67.41A4.215,4.215,0,0,0,47.459,63.25ZM17.233,46.717c-3.152-1.959-4.087-2.86-4.364-3.223a2.123,2.123,0,0,1,3.377-2.575c.773,1.013,1.983,4.425,2.783,6.882q-.9-.532-1.8-1.085ZM21.775,47.8c.8-2.458,2.01-5.869,2.783-6.882a2.123,2.123,0,0,1,3.376,2.575c-.277.363-1.212,1.264-4.363,3.223q-.891.553-1.8,1.085Zm15.619,6.771h6.019a1.76,1.76,0,0,1,1.758,1.758v.053H37.395Zm0,8.63v-5.22h7.1L45.8,63.2H37.395ZM14.436,80.248A3.462,3.462,0,1,1,17.9,76.785,3.466,3.466,0,0,1,14.436,80.248Zm28.126,0a3.462,3.462,0,1,1,3.462-3.462A3.466,3.466,0,0,1,42.562,80.248ZM49.434,70.02h-.906a.907.907,0,0,1-.906-.906v-.906h1.811V70.02Z" fill="#1268f1"/>
        <path id="Path_346647" data-name="Path 346647" d="M29.833,236.8a1.651,1.651,0,1,0,1.651,1.651,1.653,1.653,0,0,0-1.651-1.651Zm28.126,0a1.651,1.651,0,1,0,1.651,1.651A1.653,1.653,0,0,0,57.959,236.8Zm-9.375-3.409H36.652a.8.8,0,1,0,0,1.6H48.584a.8.8,0,1,0,0-1.6Zm-20.455-3.409H17.9a.8.8,0,1,0,0,1.6H28.129a.8.8,0,1,0,0-1.6Zm0-11.932H24.719a.8.8,0,0,0-.8.8v6.818a.8.8,0,1,0,1.6,0v-2.61h1.758a.8.8,0,1,0,0-1.6H25.519v-1.811h2.61a.8.8,0,1,0,0-1.6Zm6.288,5.382a2.929,2.929,0,0,0-1.6-5.382H30.686a.8.8,0,0,0-.8.8v6.818a.8.8,0,1,0,1.6,0v-1.758h1.33l1.467,2.2a.8.8,0,0,0,1.33-.886Zm-1.6-1.12H31.485v-2.663h1.332a1.332,1.332,0,1,1,0,2.663Zm8.1,2.557H38.3v-1.814l.053,0h1.7a.8.8,0,0,0,0-1.6h-1.7l-.053,0v-1.814h2.61a.8.8,0,1,0,0-1.6H37.5a.8.8,0,0,0-.8.8v6.818a.8.8,0,0,0,.8.8h3.409a.8.8,0,1,0,0-1.6Zm5.966,0h-2.61v-1.811h.906a.8.8,0,0,0,0-1.6h-.906v-1.811h2.61a.8.8,0,1,0,0-1.6H43.47a.8.8,0,0,0-.8.8v6.818a.8.8,0,0,0,.8.8h3.409a.8.8,0,1,0,0-1.6Z" transform="translate(-15.397 -161.663)" fill="#1268f1"/>
      </g>
    </g>
  </g>
</svg>
