<svg viewBox="0 0 125.679 111.885" height="111.885" width="125.679" xmlns:xlink="http://www.w3.org/1999/xlink" xmlns="http://www.w3.org/2000/svg">
  <defs>
    <clipPath id="clip-path">
      <rect fill="none" height="111.885" width="125.679" data-name="Rectangle 189083" id="Rectangle_189083"></rect>
    </clipPath>
  </defs>
  <g transform="translate(-257.926 -715.615)" data-name="Group 206479" id="Group_206479">
    <g opacity="0.514" transform="translate(185.15 -20.717)" data-name="Group 205789" id="Group_205789">
      <g transform="translate(72.775 736.332)" data-name="Group 205784" id="Group_205784">
        <g clip-path="url(#clip-path)" data-name="Group 205783" id="Group_205783">
          <path fill="#e0ecff" transform="translate(-3.131 0)" d="M120.126,51.636l-12.82-12.82V20.691a6.086,6.086,0,0,0-6.084-6.084H83.1L70.276,1.786a6.083,6.083,0,0,0-8.61,0l-12.82,12.82H30.72a6.088,6.088,0,0,0-6.093,6.084V38.816l-12.82,12.82a6.1,6.1,0,0,0,0,8.61l12.82,12.82V91.2a6.088,6.088,0,0,0,6.093,6.084H48.846l12.82,12.82a6.1,6.1,0,0,0,8.61,0L83.1,97.286h18.125a6.086,6.086,0,0,0,6.084-6.084V73.067l12.82-12.82a6.083,6.083,0,0,0,0-8.61M112.259,60.8,102.136,70.921V85.245a6.872,6.872,0,0,1-6.872,6.862H80.951L70.829,102.229a6.852,6.852,0,0,1-9.715,0L50.991,92.107H36.678a6.872,6.872,0,0,1-6.872-6.862V70.921L19.684,60.8a6.874,6.874,0,0,1,0-9.715L29.806,40.962V26.648a6.88,6.88,0,0,1,6.872-6.872H50.991L61.114,9.654a6.875,6.875,0,0,1,9.715,0L80.951,19.776H95.265a6.88,6.88,0,0,1,6.872,6.872V40.962l10.122,10.122a6.875,6.875,0,0,1,0,9.715" data-name="Path 345649" id="Path_345649"></path>
          <path fill="#fff" transform="translate(-6.603 -3.47)" d="M117.741,59.416a6.829,6.829,0,0,1-2.01,4.853L105.608,74.391V88.714a6.872,6.872,0,0,1-6.872,6.862H84.423L74.3,105.7a6.853,6.853,0,0,1-9.714,0L54.464,95.576H40.15a6.872,6.872,0,0,1-6.872-6.862V74.391L23.156,64.269a6.875,6.875,0,0,1,0-9.714L33.278,44.432V30.118a6.88,6.88,0,0,1,6.872-6.872H54.464L64.586,13.124a6.875,6.875,0,0,1,9.714,0L84.423,23.246H98.737a6.88,6.88,0,0,1,6.872,6.872V44.432l10.123,10.122a6.85,6.85,0,0,1,2.01,4.862" data-name="Path 345650" id="Path_345650"></path>
          <path fill="#c6dcff" transform="translate(-6.603 -3.47)" d="M69.438,13.83a4.131,4.131,0,0,1,2.941,1.215L82.5,25.167l.8.8H98.736a4.16,4.16,0,0,1,4.155,4.156V45.557l.8.8L113.8,56.468a4.157,4.157,0,0,1,.007,5.88L103.687,72.47l-.8.8V88.714a4.155,4.155,0,0,1-4.155,4.146H83.3l-.8.8L72.372,103.785a4.137,4.137,0,0,1-5.867-.007L56.383,93.656l-.8-.8H40.149a4.156,4.156,0,0,1-4.155-4.146V73.266l-.8-.8L25.075,62.348a4.158,4.158,0,0,1,0-5.874L35.2,46.352l.8-.8V30.118a4.161,4.161,0,0,1,4.155-4.156h15.44l.8-.8L66.505,15.044a4.119,4.119,0,0,1,2.933-1.215m0-2.716a6.827,6.827,0,0,0-4.853,2.01L54.463,23.246H40.149a6.879,6.879,0,0,0-6.871,6.872V44.432L23.155,54.554a6.875,6.875,0,0,0,0,9.714L33.277,74.391V88.714a6.872,6.872,0,0,0,6.871,6.863H54.463L64.585,105.7a6.852,6.852,0,0,0,9.714,0L84.422,95.577H98.736a6.872,6.872,0,0,0,6.872-6.863V74.391L115.73,64.269a6.875,6.875,0,0,0,0-9.714L105.608,44.432V30.118a6.88,6.88,0,0,0-6.872-6.872H84.422L74.3,13.124a6.833,6.833,0,0,0-4.862-2.01" data-name="Path 345651" id="Path_345651"></path>
        </g>
      </g>
    </g>
    <g transform="translate(289.444 -210.107)" data-name="Group 206478" id="Group_206478">
      <path fill="#1368f2" transform="translate(0 0)" d="M16.887,958.276a1.015,1.015,0,0,0-.887.98v36.757a1.018,1.018,0,0,0,.979.98H29.51a.98.98,0,1,0,0-1.96H17.958v-34.8H47.336v34.8h-.474a.98.98,0,1,0,0,1.96h1.454a1.018,1.018,0,0,0,.979-.98V959.256a1.018,1.018,0,0,0-.979-.98Zm4.9,4.411a.981.981,0,0,0,.092,1.96H43.419a.98.98,0,1,0,0-1.96Zm0,4.9a.981.981,0,0,0,.092,1.96H39.012a.98.98,0,1,0,0-1.96H21.784Zm0,4.9a.981.981,0,0,0,.092,1.96H42.944a.98.98,0,1,0,0-1.96Zm0,4.9a.981.981,0,0,0,.092,1.96h9.3a.98.98,0,1,0,0-1.96Zm16.249.98a7.352,7.352,0,1,0,7.344,7.351A7.363,7.363,0,0,0,38.033,978.37Zm0,1.96a5.391,5.391,0,1,1-5.386,5.391A5.374,5.374,0,0,1,38.033,980.33Zm2.356,2.925a.989.989,0,0,0-.643.337l-2.739,3.124-1.224-1.21a.98.98,0,1,0-1.377,1.394l1.958,1.96a1.02,1.02,0,0,0,1.438-.046l3.412-3.921a.98.98,0,0,0-.826-1.639Zm-7.36,9.8a1.015,1.015,0,0,0-.872,1v6.371a1.033,1.033,0,0,0,1.53.8l4.345-3,4.345,3a1.033,1.033,0,0,0,1.53-.8v-6.371a.979.979,0,1,0-1.958,0v4.5l-3.366-2.343a1,1,0,0,0-1.1,0l-3.366,2.343v-4.5A1.023,1.023,0,0,0,33.03,993.058Z" data-name="Path 347214" id="Path_347214"></path>
    </g>
  </g>
</svg>
