<svg xmlns="http://www.w3.org/2000/svg" width="30" height="30" viewBox="0 0 30 30">
  <g id="Group_205749" data-name="Group 205749" transform="translate(-768 -6279.793)">
    <g id="Rectangle_1004" data-name="Rectangle 1004" transform="translate(768 6279.793)" fill="none" stroke="#001a43" stroke-width="1">
      <rect width="30" height="30" rx="15" stroke="none"/>
      <rect x="0.5" y="0.5" width="29" height="29" rx="14.5" fill="none"/>
    </g>
    <g id="Group_205750" data-name="Group 205750" transform="translate(777.706 6287.895)">
      <path id="Path_345615" data-name="Path 345615" d="M53.709,0C49.985,0,48,2.387,48,4.989a3.645,3.645,0,0,0,1.754,3.189c.164.074.253.042.29-.11.032-.116.174-.672.243-.934a.24.24,0,0,0-.058-.236,3.1,3.1,0,0,1-.643-1.878,3.661,3.661,0,0,1,3.9-3.577A3.338,3.338,0,0,1,57.1,4.8c0,2.23-1.18,3.772-2.713,3.772a1.215,1.215,0,0,1-1.28-1.49,16.147,16.147,0,0,0,.717-2.743,1.054,1.054,0,0,0-1.091-1.159,1.8,1.8,0,0,0-1.565,2A2.857,2.857,0,0,0,51.424,6.4s-.854,3.452-1.013,4.1a9.166,9.166,0,0,0,.063,3.011.09.09,0,0,0,.163.042A10.7,10.7,0,0,0,52.044,10.9c.105-.388.538-1.962.538-1.962a2.348,2.348,0,0,0,1.981.944c2.6,0,4.483-2.287,4.483-5.126C59.035,2.036,56.706,0,53.709,0Z" transform="translate(-48.004)" fill="#001a43"/>
    </g>
  </g>
</svg>
