<svg xmlns="http://www.w3.org/2000/svg" xmlns:xlink="http://www.w3.org/1999/xlink" width="125.679" height="111.885" viewBox="0 0 125.679 111.885">
  <defs>
    <clipPath id="clip-path">
      <rect id="Rectangle_189083" data-name="Rectangle 189083" width="125.679" height="111.885" fill="none"/>
    </clipPath>
  </defs>
  <g id="Group_206403" data-name="Group 206403" transform="translate(-572.321 -1525)">
    <g id="Group_206402" data-name="Group 206402" transform="translate(499.546 788.668)" opacity="0.514">
      <g id="Group_205784" data-name="Group 205784" transform="translate(72.775 736.332)">
        <g id="Group_205783" data-name="Group 205783" clip-path="url(#clip-path)">
          <path id="Path_345649" data-name="Path 345649" d="M120.126,51.636l-12.82-12.82V20.691a6.086,6.086,0,0,0-6.084-6.084H83.1L70.276,1.786a6.083,6.083,0,0,0-8.61,0l-12.82,12.82H30.72a6.088,6.088,0,0,0-6.093,6.084V38.816l-12.82,12.82a6.1,6.1,0,0,0,0,8.61l12.82,12.82V91.2a6.088,6.088,0,0,0,6.093,6.084H48.846l12.82,12.82a6.1,6.1,0,0,0,8.61,0L83.1,97.286h18.125a6.086,6.086,0,0,0,6.084-6.084V73.067l12.82-12.82a6.083,6.083,0,0,0,0-8.61M112.259,60.8,102.136,70.921V85.245a6.872,6.872,0,0,1-6.872,6.862H80.951L70.829,102.229a6.852,6.852,0,0,1-9.715,0L50.991,92.107H36.678a6.872,6.872,0,0,1-6.872-6.862V70.921L19.684,60.8a6.874,6.874,0,0,1,0-9.715L29.806,40.962V26.648a6.88,6.88,0,0,1,6.872-6.872H50.991L61.114,9.654a6.875,6.875,0,0,1,9.715,0L80.951,19.776H95.265a6.88,6.88,0,0,1,6.872,6.872V40.962l10.122,10.122a6.875,6.875,0,0,1,0,9.715" transform="translate(-3.131 0)" fill="#e0ecff"/>
          <path id="Path_345650" data-name="Path 345650" d="M117.741,59.416a6.829,6.829,0,0,1-2.01,4.853L105.608,74.391V88.714a6.872,6.872,0,0,1-6.872,6.862H84.423L74.3,105.7a6.853,6.853,0,0,1-9.714,0L54.464,95.576H40.15a6.872,6.872,0,0,1-6.872-6.862V74.391L23.156,64.269a6.875,6.875,0,0,1,0-9.714L33.278,44.432V30.118a6.88,6.88,0,0,1,6.872-6.872H54.464L64.586,13.124a6.875,6.875,0,0,1,9.714,0L84.423,23.246H98.737a6.88,6.88,0,0,1,6.872,6.872V44.432l10.123,10.122a6.85,6.85,0,0,1,2.01,4.862" transform="translate(-6.603 -3.47)" fill="#fff"/>
          <path id="Path_345651" data-name="Path 345651" d="M69.438,13.83a4.131,4.131,0,0,1,2.941,1.215L82.5,25.167l.8.8H98.736a4.16,4.16,0,0,1,4.155,4.156V45.557l.8.8L113.8,56.468a4.157,4.157,0,0,1,.007,5.88L103.687,72.47l-.8.8V88.714a4.155,4.155,0,0,1-4.155,4.146H83.3l-.8.8L72.372,103.785a4.137,4.137,0,0,1-5.867-.007L56.383,93.656l-.8-.8H40.149a4.156,4.156,0,0,1-4.155-4.146V73.266l-.8-.8L25.075,62.348a4.158,4.158,0,0,1,0-5.874L35.2,46.352l.8-.8V30.118a4.161,4.161,0,0,1,4.155-4.156h15.44l.8-.8L66.505,15.044a4.119,4.119,0,0,1,2.933-1.215m0-2.716a6.827,6.827,0,0,0-4.853,2.01L54.463,23.246H40.149a6.879,6.879,0,0,0-6.871,6.872V44.432L23.155,54.554a6.875,6.875,0,0,0,0,9.714L33.277,74.391V88.714a6.872,6.872,0,0,0,6.871,6.863H54.463L64.585,105.7a6.852,6.852,0,0,0,9.714,0L84.422,95.577H98.736a6.872,6.872,0,0,0,6.872-6.863V74.391L115.73,64.269a6.875,6.875,0,0,0,0-9.714L105.608,44.432V30.118a6.88,6.88,0,0,0-6.872-6.872H84.422L74.3,13.124a6.833,6.833,0,0,0-4.862-2.01" transform="translate(-6.603 -3.47)" fill="#c6dcff"/>
        </g>
      </g>
    </g>
    <g id="noun-seal-147126" transform="translate(601.122 1539)">
      <g id="Group_206396" data-name="Group 206396" transform="translate(12.57 16)">
        <path id="Path_347183" data-name="Path 347183" d="M51.775,44.391h-2.2A3.112,3.112,0,0,0,49,43.235h2.775a.867.867,0,0,0,0-1.735H41.367a.867.867,0,0,0,0,1.735h3.354c1.792,0,2.6.463,3.007,1.156h-6.36a.867.867,0,0,0,0,1.735h6.649c-.058,1.214-.578,2.313-3.3,2.313H41.367a.907.907,0,0,0-.809.52.882.882,0,0,0,.173.925l6.938,6.938a.99.99,0,0,0,1.272,0,.838.838,0,0,0,0-1.214l-5.435-5.435h1.214c4.163,0,4.973-2.428,5.03-4.047h2.024a.867.867,0,0,0,0-1.735Z" transform="translate(-24.351 -26.756)" fill="#1368f2"/>
        <g id="Group_206395" data-name="Group 206395">
          <path id="Path_347184" data-name="Path 347184" d="M50.98,49.94l3.3-2.486a3.934,3.934,0,0,0,1.388-4.279l-1.214-3.99a2.375,2.375,0,0,1,0-1.272l1.214-3.99a3.934,3.934,0,0,0-1.388-4.279l-3.3-2.486a2.676,2.676,0,0,1-.752-1.041l-1.388-3.932a3.932,3.932,0,0,0-3.643-2.66l-4.105-.058a1.815,1.815,0,0,1-1.214-.4l-3.411-2.371a4.011,4.011,0,0,0-4.51,0l-3.411,2.371a2.18,2.18,0,0,1-1.214.4l-4.163.058a4.052,4.052,0,0,0-3.643,2.66l-1.388,3.932a2.2,2.2,0,0,1-.752,1.041l-3.3,2.486a3.906,3.906,0,0,0-1.33,4.279l1.214,3.99a2.375,2.375,0,0,1,0,1.272l-1.214,3.99a3.934,3.934,0,0,0,1.388,4.279l3.3,2.486a2.676,2.676,0,0,1,.752,1.041l1.388,3.932a3.932,3.932,0,0,0,3.643,2.66l4.163.058a1.815,1.815,0,0,1,1.214.4l3.411,2.371a3.855,3.855,0,0,0,2.255.694,3.986,3.986,0,0,0,2.255-.694l3.411-2.371a2.18,2.18,0,0,1,1.214-.4l4.163-.058a4.052,4.052,0,0,0,3.643-2.66l1.388-3.932A1.455,1.455,0,0,1,50.98,49.94Zm-1.041-1.388a3.573,3.573,0,0,0-1.33,1.85l-1.388,3.932A2.119,2.119,0,0,1,45.2,55.78l-4.163.116a3.633,3.633,0,0,0-2.139.694L35.484,58.96a2.175,2.175,0,0,1-2.486,0L29.587,56.59a3.633,3.633,0,0,0-2.139-.694l-4.221-.116A2.2,2.2,0,0,1,21.2,54.335L19.815,50.4a3.573,3.573,0,0,0-1.33-1.85l-3.3-2.486a2.112,2.112,0,0,1-.752-2.371l1.214-3.99a3.75,3.75,0,0,0,0-2.255l-1.214-3.99a2.174,2.174,0,0,1,.752-2.371l3.3-2.486a3.573,3.573,0,0,0,1.33-1.85L21.2,22.823a2.119,2.119,0,0,1,2.024-1.445l4.163-.058a3.633,3.633,0,0,0,2.139-.694l3.411-2.371a2.372,2.372,0,0,1,1.272-.4,2.081,2.081,0,0,1,1.272.4L38.9,20.626a3.633,3.633,0,0,0,2.139.694l4.163.058a2.2,2.2,0,0,1,2.024,1.445l1.388,3.932a3.573,3.573,0,0,0,1.33,1.85l3.3,2.486a2.112,2.112,0,0,1,.752,2.371L52.83,37.393a3.75,3.75,0,0,0,0,2.255l1.214,3.99a2.174,2.174,0,0,1-.752,2.371Z" transform="translate(-12.57 -16)" fill="#1368f2"/>
          <path id="Path_347185" data-name="Path 347185" d="M42.849,27.219h.173a13.446,13.446,0,0,1,1.619-.289A.875.875,0,0,0,44.41,25.2c-.578.058-1.214.173-1.792.289a.882.882,0,0,0,.231,1.735Z" transform="translate(-24.965 -19.876)" fill="#1368f2"/>
          <path id="Path_347186" data-name="Path 347186" d="M35.785,78.411A10.894,10.894,0,0,1,34.4,77.6a.909.909,0,0,0-1.214.231.856.856,0,0,0,.231,1.214c.52.347,1.041.636,1.561.925a1.072,1.072,0,0,0,.4.116.833.833,0,0,0,.752-.463A.914.914,0,0,0,35.785,78.411Z" transform="translate(-21.197 -41.926)" fill="#1368f2"/>
          <path id="Path_347187" data-name="Path 347187" d="M33.735,30.753a1.089,1.089,0,0,0,.463-.116c.463-.289.925-.578,1.388-.809a.854.854,0,0,0-.809-1.5c-.52.289-1.041.578-1.561.925a.856.856,0,0,0-.231,1.214A1.1,1.1,0,0,0,33.735,30.753Z" transform="translate(-21.113 -21.155)" fill="#1368f2"/>
          <path id="Path_347188" data-name="Path 347188" d="M44.741,81.571a15.85,15.85,0,0,1-1.619-.289.862.862,0,1,0-.4,1.677c.578.116,1.214.231,1.792.289h.116a.924.924,0,0,0,.867-.752A.833.833,0,0,0,44.741,81.571Z" transform="translate(-25.007 -43.525)" fill="#1368f2"/>
          <path id="Path_347189" data-name="Path 347189" d="M22.955,62.457a.878.878,0,0,0-1.677.52,14.388,14.388,0,0,0,.636,1.677.819.819,0,0,0,.809.52.733.733,0,0,0,.347-.058.872.872,0,0,0,.463-1.156A11.584,11.584,0,0,1,22.955,62.457Z" transform="translate(-16.231 -35.339)" fill="#1368f2"/>
          <path id="Path_347190" data-name="Path 347190" d="M21.817,45.748c.058,0,.173.058.231.058a.851.851,0,0,0,.809-.636c.173-.52.347-1.041.578-1.561a.881.881,0,1,0-1.619-.694c-.231.578-.463,1.156-.636,1.735A.953.953,0,0,0,21.817,45.748Z" transform="translate(-16.192 -27.13)" fill="#1368f2"/>
          <path id="Path_347191" data-name="Path 347191" d="M52.647,26.93a15.85,15.85,0,0,1,1.619.289h.173a.921.921,0,0,0,.867-.694.862.862,0,0,0-.636-1.041c-.578-.116-1.214-.231-1.792-.289a.875.875,0,1,0-.231,1.735Z" transform="translate(-29.155 -19.876)" fill="#1368f2"/>
          <path id="Path_347192" data-name="Path 347192" d="M27.356,71.042a.867.867,0,1,0-1.388,1.041c.347.463.752.925,1.156,1.388a.928.928,0,0,0,.636.289.742.742,0,0,0,.578-.231.894.894,0,0,0,.058-1.214A10.066,10.066,0,0,1,27.356,71.042Z" transform="translate(-18.145 -39.067)" fill="#1368f2"/>
          <path id="Path_347193" data-name="Path 347193" d="M26.042,36.99a.933.933,0,0,0,.52.173.824.824,0,0,0,.694-.347c.347-.4.694-.867,1.041-1.272a.86.86,0,0,0-1.272-1.156c-.4.463-.809.925-1.156,1.388A.845.845,0,0,0,26.042,36.99Z" transform="translate(-18.103 -23.633)" fill="#1368f2"/>
          <path id="Path_347194" data-name="Path 347194" d="M20.925,55.511a.854.854,0,0,0,.809-.925V53.025A.869.869,0,1,0,20,52.909V54.7l.867-.058L20,54.7a.894.894,0,0,0,.925.809Z" transform="translate(-15.704 -31.227)" fill="#1368f2"/>
          <path id="Path_347195" data-name="Path 347195" d="M75.288,45.012a.927.927,0,0,0,.809.636.348.348,0,0,0,.231-.058.889.889,0,0,0,.578-1.1,14.389,14.389,0,0,0-.636-1.677.881.881,0,0,0-1.619.694A6.908,6.908,0,0,1,75.288,45.012Z" transform="translate(-38.728 -27.087)" fill="#1368f2"/>
          <path id="Path_347196" data-name="Path 347196" d="M54.366,81.282a13.446,13.446,0,0,1-1.619.289.865.865,0,0,0-.752.983.83.83,0,0,0,.867.752h.116c.578-.058,1.214-.173,1.792-.289a.891.891,0,0,0-.4-1.735Z" transform="translate(-29.197 -43.525)" fill="#1368f2"/>
          <path id="Path_347197" data-name="Path 347197" d="M78.731,52.705a.823.823,0,0,0-.925-.809.854.854,0,0,0-.809.925V54.5a.935.935,0,0,0,.809.925h.058a.84.84,0,0,0,.867-.809V52.705Z" transform="translate(-39.743 -31.139)" fill="#1368f2"/>
          <path id="Path_347198" data-name="Path 347198" d="M71.885,70.768a.845.845,0,0,0-1.214.173c-.347.463-.694.867-1.041,1.272a.838.838,0,0,0,.058,1.214.828.828,0,0,0,.578.231.928.928,0,0,0,.636-.289c.4-.463.809-.925,1.156-1.388A.906.906,0,0,0,71.885,70.768Z" transform="translate(-36.54 -39.025)" fill="#1368f2"/>
          <path id="Path_347199" data-name="Path 347199" d="M76.429,61.879a.916.916,0,0,0-1.1.578c-.173.52-.347,1.041-.578,1.561a.891.891,0,0,0,.463,1.156.733.733,0,0,0,.347.058.872.872,0,0,0,.809-.52c.231-.578.463-1.156.636-1.735A.889.889,0,0,0,76.429,61.879Z" transform="translate(-38.771 -35.339)" fill="#1368f2"/>
          <path id="Path_347200" data-name="Path 347200" d="M61.855,29.645c.463.231.983.52,1.446.809a.7.7,0,0,0,.463.116.843.843,0,0,0,.752-.4.909.909,0,0,0-.231-1.214c-.52-.347-1.041-.636-1.561-.925a.835.835,0,0,0-1.156.4A.775.775,0,0,0,61.855,29.645Z" transform="translate(-33.16 -21.029)" fill="#1368f2"/>
          <path id="Path_347201" data-name="Path 347201" d="M70.588,36.733a.824.824,0,0,0,.694.347.933.933,0,0,0,.52-.173.845.845,0,0,0,.173-1.214c-.347-.463-.752-.925-1.156-1.388a.86.86,0,0,0-1.272,1.156C69.894,35.866,70.241,36.27,70.588,36.733Z" transform="translate(-36.514 -23.608)" fill="#1368f2"/>
          <path id="Path_347202" data-name="Path 347202" d="M63.344,77.51c-.463.289-.925.578-1.388.809a.943.943,0,0,0-.4,1.156.9.9,0,0,0,.752.463,1.072,1.072,0,0,0,.4-.116c.52-.289,1.041-.578,1.561-.925a.856.856,0,0,0,.231-1.214A.942.942,0,0,0,63.344,77.51Z" transform="translate(-33.202 -41.893)" fill="#1368f2"/>
        </g>
      </g>
    </g>
  </g>
</svg>
