<svg viewBox="0 0 30 30.208" height="30.208" width="30" xmlns:xlink="http://www.w3.org/1999/xlink" xmlns="http://www.w3.org/2000/svg">
  <defs>
    <clipPath id="clip-path">
      <rect fill="none" height="29.783" width="16.31" data-sanitized-data-name="Rectangle 187245" data-name="Rectangle 187245" id="Rectangle_187245"></rect>
    </clipPath>
  </defs>
  <g transform="translate(-984 -630.76)" data-sanitized-data-name="Group 205603" data-name="Group 205603" id="Group_205603">
    <rect fill="none" transform="translate(984 630.947)" height="30.021" width="30" data-sanitized-data-name="Rectangle 187227" data-name="Rectangle 187227" id="Rectangle_187227"></rect>
    <g transform="translate(991.301 630.76)" data-sanitized-data-name="Group 205604" data-name="Group 205604" id="Group_205604">
      <g clip-path="url(#clip-path)" data-sanitized-data-name="Group 205603" data-name="Group 205603" id="Group_205603-2">
        <path transform="translate(0 -42.268)" d="M12.5,68.8l-.694-.669c.027-.015.066-.038.107-.057a5.924,5.924,0,0,0,2.77-2.428A5.816,5.816,0,0,0,15.449,63a11.355,11.355,0,0,0-1.04-5.318,26.056,26.056,0,0,0-2.058-3.623c-.716-1.1-1.419-2.213-2.123-3.323A.232.232,0,0,0,10,50.609c-1.238,0-2.476,0-3.714.006A.246.246,0,0,0,6.1,50.7c-1,1.552-2,3.1-2.978,4.666a15.478,15.478,0,0,0-1.935,4.317,9.985,9.985,0,0,0-.282,3.821,5.488,5.488,0,0,0,2.244,3.835.647.647,0,0,1,.28.438,2.428,2.428,0,0,0,.5,1.046c-.013.009-.023.021-.027.019A6.767,6.767,0,0,1,1.024,66.33,7,7,0,0,1,0,62.7a12.643,12.643,0,0,1,1.269-5.716,33.788,33.788,0,0,1,2.407-4.1c.657-1.016,1.3-2.046,1.938-3.074a.245.245,0,0,1,.235-.137c1.538,0,3.076,0,4.615.007a.247.247,0,0,1,.186.091c1.032,1.612,2.066,3.222,3.083,4.844a17.827,17.827,0,0,1,2.052,4.335,11.186,11.186,0,0,1,.441,4.653,6.4,6.4,0,0,1-2.7,4.568c-.269.194-.559.353-.84.525-.065.04-.136.069-.188.095" data-sanitized-data-name="Path 345497" data-name="Path 345497" id="Path_345497"></path>
        <path transform="translate(-24.662 0)" d="M32.653,4.668c-.7,0-1.4,0-2.106,0-.137,0-.193-.05-.235-.192A6.18,6.18,0,0,0,29.24,2.3c-.171-.213-.361-.407-.54-.612a1.094,1.094,0,0,1-.126-.184.518.518,0,0,1-.026-.553.421.421,0,0,1,.48-.21,4.542,4.542,0,0,1,.673.28c.108.05.209.12.315.178a1.132,1.132,0,0,0,1.47-.22c.133-.13.26-.268.4-.384a.56.56,0,0,1,.878.069,1.955,1.955,0,0,1,.166.194.845.845,0,0,0,1.054.334,3.683,3.683,0,0,0,.74-.412c.285-.187.547-.42.838-.6a1.106,1.106,0,0,1,.87-.153.58.58,0,0,1,.4.827,1.541,1.541,0,0,1-.306.518,6.908,6.908,0,0,0-1.518,3.08c-.042.156-.092.217-.248.214-.7-.011-1.4,0-2.106,0M30.312,2.3l.064.137c.18.385.365.768.535,1.159.047.108.1.146.2.146q1.534-.007,3.069,0c.112,0,.15-.045.194-.152.238-.585.485-1.165.734-1.744.053-.124.129-.237.212-.389-1.056.878-2.126,1.063-3.063-.005a2.105,2.105,0,0,1-1.946.849" data-sanitized-data-name="Path 345498" data-name="Path 345498" id="Path_345498"></path>
        <path transform="translate(-38.161 -132.759)" d="M44.494,162.542a.408.408,0,0,1-.37-.236.5.5,0,0,1,.023-.506q.368-.618.739-1.235,1.279-2.134,2.559-4.269c.147-.245.345-.326.547-.23a.5.5,0,0,1,.16.734q-.564.946-1.132,1.889-1.074,1.792-2.148,3.585a.474.474,0,0,1-.378.268" data-sanitized-data-name="Path 345499" data-name="Path 345499" id="Path_345499"></path>
        <path transform="translate(-58.44 -151.344)" d="M68.94,181.125a1.637,1.637,0,1,1,1.469-1.635,1.548,1.548,0,0,1-1.469,1.635m.631-1.628a.629.629,0,1,0-.62.7.671.671,0,0,0,.62-.7" data-sanitized-data-name="Path 345500" data-name="Path 345500" id="Path_345500"></path>
        <path transform="translate(-26.007 -132.77)" d="M31.5,159.3a1.637,1.637,0,1,1,1.458-1.631A1.55,1.55,0,0,1,31.5,159.3m-.023-.933a.662.662,0,0,0,.641-.69.628.628,0,1,0-.641.69" data-sanitized-data-name="Path 345501" data-name="Path 345501" id="Path_345501"></path>
        <path transform="translate(-32.768 -31.927)" d="M40.665,37.792l.244-.025-.035-.2a.91.91,0,0,1,.192-.043q1.077,0,2.153,0a.445.445,0,0,1,.471.464.439.439,0,0,1-.465.467q-2.466,0-4.933,0a.44.44,0,0,1-.454-.478.446.446,0,0,1,.464-.454c.691,0,1.382,0,2.073,0,.081,0,.151.006.167.116l0,0,.033.038.007,0,.058.1a.085.085,0,0,1,.028.008" data-sanitized-data-name="Path 345502" data-name="Path 345502" id="Path_345502"></path>
        <path transform="translate(-50.859 -33.418)" d="M58.757,39.283a.085.085,0,0,0-.028-.008l.028.008" data-sanitized-data-name="Path 345503" data-name="Path 345503" id="Path_345503"></path>
        <path transform="translate(-50.436 -32.245)" d="M58.247,38l-.007,0,.013-.1-.006.1" data-sanitized-data-name="Path 345504" data-name="Path 345504" id="Path_345504"></path>
        <path fill="#fff" transform="translate(-50.225 -32.245)" d="M58.042,37.9l-.013.1L58,37.959l.051-.058Z" data-sanitized-data-name="Path 345505" data-name="Path 345505" id="Path_345505"></path>
        <path transform="translate(-50.224 -32.27)" d="M58.046,37.926,58,37.984l0,0,.047-.056" data-sanitized-data-name="Path 345506" data-name="Path 345506" id="Path_345506"></path>
        <path fill="#fff" transform="translate(-63.854 -156.661)" d="M74.984,184.814a.628.628,0,1,1-.623-.7.667.667,0,0,1,.623.7" data-sanitized-data-name="Path 345507" data-name="Path 345507" id="Path_345507"></path>
        <path fill="#fff" transform="translate(-31.436 -138.089)" d="M36.908,163.683a.7.7,0,1,1,.641-.69.668.668,0,0,1-.641.69" data-sanitized-data-name="Path 345508" data-name="Path 345508" id="Path_345508"></path>
      </g>
    </g>
    <text font-weight="800" font-family="NunitoSans-Black, Nunito Sans" font-size="5" fill="#121212" transform="translate(999.412 652.07)" id="GST"><tspan y="0" x="-5">GST</tspan></text>
  </g>
</svg>
