<svg xmlns="http://www.w3.org/2000/svg" width="30" height="30" viewBox="0 0 30 30">
  <g id="Group_189514" data-name="Group 189514" transform="translate(-768 -6280)">
    <g id="Rectangle_1004" data-name="Rectangle 1004" transform="translate(768 6280)" fill="none" stroke="#001a43" stroke-width="1">
      <rect width="30" height="30" rx="15" stroke="none"/>
      <rect x="0.5" y="0.5" width="29" height="29" rx="14.5" fill="none"/>
    </g>
    <g id="Icon_feather-instagram" data-name="Icon feather-instagram" transform="translate(777.818 6289.818)">
      <g id="Group_189444" data-name="Group 189444">
        <path id="Path_94537" data-name="Path 94537" d="M5.591,3h5.182a2.591,2.591,0,0,1,2.591,2.591v5.182a2.591,2.591,0,0,1-2.591,2.591H5.591A2.591,2.591,0,0,1,3,10.773V5.591A2.591,2.591,0,0,1,5.591,3Z" transform="translate(-3 -3)" fill="none" stroke="#001a43" stroke-linecap="round" stroke-linejoin="round" stroke-width="1"/>
        <path id="Path_94538" data-name="Path 94538" d="M16.188,13.7a2.073,2.073,0,1,1-1.746-1.746A2.073,2.073,0,0,1,16.188,13.7Z" transform="translate(-8.933 -8.848)" fill="none" stroke="#001a43" stroke-linecap="round" stroke-linejoin="round" stroke-width="1"/>
        <path id="Path_94539" data-name="Path 94539" d="M26.25,9.75h0" transform="translate(-18.218 -7.418)" fill="none" stroke="#001a43" stroke-linecap="round" stroke-linejoin="round" stroke-width="1"/>
      </g>
    </g>
  </g>
</svg>
