<svg xmlns="http://www.w3.org/2000/svg" xmlns:xlink="http://www.w3.org/1999/xlink" width="125.679" height="111.885" viewBox="0 0 125.679 111.885">
  <defs>
    <clipPath id="clip-path">
      <rect id="Rectangle_189083" data-name="Rectangle 189083" width="125.679" height="111.885" fill="none"/>
    </clipPath>
  </defs>
  <g id="Group_206361" data-name="Group 206361" transform="translate(-950 -2367)">
    <g id="Group_206355" data-name="Group 206355" transform="translate(877.225 1630.668)" opacity="0.514">
      <g id="Group_205784" data-name="Group 205784" transform="translate(72.775 736.332)">
        <g id="Group_205783" data-name="Group 205783" clip-path="url(#clip-path)">
          <path id="Path_345649" data-name="Path 345649" d="M120.126,51.636l-12.82-12.82V20.691a6.086,6.086,0,0,0-6.084-6.084H83.1L70.276,1.786a6.083,6.083,0,0,0-8.61,0l-12.82,12.82H30.72a6.088,6.088,0,0,0-6.093,6.084V38.816l-12.82,12.82a6.1,6.1,0,0,0,0,8.61l12.82,12.82V91.2a6.088,6.088,0,0,0,6.093,6.084H48.846l12.82,12.82a6.1,6.1,0,0,0,8.61,0L83.1,97.286h18.125a6.086,6.086,0,0,0,6.084-6.084V73.067l12.82-12.82a6.083,6.083,0,0,0,0-8.61M112.259,60.8,102.136,70.921V85.245a6.872,6.872,0,0,1-6.872,6.862H80.951L70.829,102.229a6.852,6.852,0,0,1-9.715,0L50.991,92.107H36.678a6.872,6.872,0,0,1-6.872-6.862V70.921L19.684,60.8a6.874,6.874,0,0,1,0-9.715L29.806,40.962V26.648a6.88,6.88,0,0,1,6.872-6.872H50.991L61.114,9.654a6.875,6.875,0,0,1,9.715,0L80.951,19.776H95.265a6.88,6.88,0,0,1,6.872,6.872V40.962l10.122,10.122a6.875,6.875,0,0,1,0,9.715" transform="translate(-3.131 0)" fill="#e0ecff"/>
          <path id="Path_345650" data-name="Path 345650" d="M117.741,59.416a6.829,6.829,0,0,1-2.01,4.853L105.608,74.391V88.714a6.872,6.872,0,0,1-6.872,6.862H84.423L74.3,105.7a6.853,6.853,0,0,1-9.714,0L54.464,95.576H40.15a6.872,6.872,0,0,1-6.872-6.862V74.391L23.156,64.269a6.875,6.875,0,0,1,0-9.714L33.278,44.432V30.118a6.88,6.88,0,0,1,6.872-6.872H54.464L64.586,13.124a6.875,6.875,0,0,1,9.714,0L84.423,23.246H98.737a6.88,6.88,0,0,1,6.872,6.872V44.432l10.123,10.122a6.85,6.85,0,0,1,2.01,4.862" transform="translate(-6.603 -3.47)" fill="#fff"/>
          <path id="Path_345651" data-name="Path 345651" d="M69.438,13.83a4.131,4.131,0,0,1,2.941,1.215L82.5,25.167l.8.8H98.736a4.16,4.16,0,0,1,4.155,4.156V45.557l.8.8L113.8,56.468a4.157,4.157,0,0,1,.007,5.88L103.687,72.47l-.8.8V88.714a4.155,4.155,0,0,1-4.155,4.146H83.3l-.8.8L72.372,103.785a4.137,4.137,0,0,1-5.867-.007L56.383,93.656l-.8-.8H40.149a4.156,4.156,0,0,1-4.155-4.146V73.266l-.8-.8L25.075,62.348a4.158,4.158,0,0,1,0-5.874L35.2,46.352l.8-.8V30.118a4.161,4.161,0,0,1,4.155-4.156h15.44l.8-.8L66.505,15.044a4.119,4.119,0,0,1,2.933-1.215m0-2.716a6.827,6.827,0,0,0-4.853,2.01L54.463,23.246H40.149a6.879,6.879,0,0,0-6.871,6.872V44.432L23.155,54.554a6.875,6.875,0,0,0,0,9.714L33.277,74.391V88.714a6.872,6.872,0,0,0,6.871,6.863H54.463L64.585,105.7a6.852,6.852,0,0,0,9.714,0L84.422,95.577H98.736a6.872,6.872,0,0,0,6.872-6.863V74.391L115.73,64.269a6.875,6.875,0,0,0,0-9.714L105.608,44.432V30.118a6.88,6.88,0,0,0-6.872-6.872H84.422L74.3,13.124a6.833,6.833,0,0,0-4.862-2.01" transform="translate(-6.603 -3.47)" fill="#c6dcff"/>
        </g>
      </g>
    </g>
    <g id="Group_206356" data-name="Group 206356" transform="translate(989.428 2399.088)">
      <path id="Path_346649" data-name="Path 346649" d="M37.715,39.911,36,34.778a5.174,5.174,0,0,0-3.983-3.454l-4.939-.9v-.383a7.438,7.438,0,0,0,2.2-1.956h1.492a2.22,2.22,0,0,0,2.217-2.217V17a9.608,9.608,0,1,0-19.217,0v5.174a2.961,2.961,0,0,0,2.357,2.9,7.4,7.4,0,0,0,3.556,4.974v.383l-4.94.9a5.173,5.173,0,0,0-3.982,3.454l-.3.888L7.955,33.148a.741.741,0,0,1,0-1.046l2.919-2.919L5.394,23.7,2.1,27a5.174,5.174,0,0,0,0,7.316l9.989,9.989a5.171,5.171,0,0,0,7.293.022l3.6-3.3-1.123-1.12Zm-6.2-14.043a.74.74,0,0,1-.739.739h-.622a7.341,7.341,0,0,0,.482-1.54,2.928,2.928,0,0,0,.879-.35Zm-.739-2.423V20.9a1.465,1.465,0,0,1,0,2.545Zm-14.782,0a1.465,1.465,0,0,1,0-2.545Zm0-4.968v.844a2.932,2.932,0,0,0-.739.306V17a8.13,8.13,0,1,1,16.26,0v2.628a2.9,2.9,0,0,0-.739-.306v-.844h-.739a8.132,8.132,0,0,1-5.786-2.4l-.865-.865-.865.865a8.132,8.132,0,0,1-5.786,2.4h-.739Zm1.478,5.174V19.928A9.582,9.582,0,0,0,23.386,17.3,9.578,9.578,0,0,0,29.3,19.928v3.724a5.868,5.868,0,0,1-.8,2.956H23.386v1.478h3.9a5.9,5.9,0,0,1-9.811-4.435ZM25.6,30.7v.035l-2.217,2.217-2.217-2.217V30.7a7.385,7.385,0,0,0,4.435,0ZM12.169,35.245a3.7,3.7,0,0,1,2.845-2.468l5.166-.939,3.205,3.205,3.2-3.2,5.166.939A3.7,3.7,0,0,1,34.6,35.245l1.064,3.188H20.377L17.5,35.554l-3.2,2.894a.755.755,0,0,1-1.045,0L11.64,36.834l.529-1.589ZM5.394,25.794l3.39,3.39-.8.8L4.591,26.6l.8-.8Zm12.96,17.471a3.7,3.7,0,0,1-5.226,0L3.139,33.275a3.7,3.7,0,0,1,0-5.226l.407-.407,3.39,3.39-.027.027a2.221,2.221,0,0,0,0,3.136l5.3,5.3a2.206,2.206,0,0,0,1.568.65,2.176,2.176,0,0,0,1.541-.624l.055-.05,3.405,3.405-.424.389Zm1.515-1.39-3.4-3.4.976-.882,3.392,3.392ZM44.08,0H33.733a2.22,2.22,0,0,0-2.217,2.217V8.13a2.22,2.22,0,0,0,2.217,2.217h1.974L34.943,14.8l7.132-4.458H44.08A2.22,2.22,0,0,0,46.3,8.13V2.217A2.22,2.22,0,0,0,44.08,0Zm.739,8.13a.74.74,0,0,1-.739.739H41.651L36.957,11.8l.5-2.933H33.733a.74.74,0,0,1-.739-.739V2.217a.74.74,0,0,1,.739-.739H44.08a.74.74,0,0,1,.739.739Z" transform="translate(-0.007)" fill="#1268f1"/>
      <path id="Path_346650" data-name="Path 346650" d="M34.465,24.739h8.869v1.478H34.465Zm0,2.956h5.913v1.478H34.465Zm7.391,0h1.478v1.478H41.856ZM23.378,24A20.682,20.682,0,0,0,3.24,40l-1.4-2.335-1.268.761,2.6,4.329,4.329-2.6-.761-1.268-2,1.2A19.222,19.222,0,0,1,29.072,26.336l.438-1.412A20.681,20.681,0,0,0,23.378,24ZM45.931,38.148,41.6,35.55l-2.6,4.33,1.268.761,1.293-2.156a19.233,19.233,0,0,1-3.257,18.31l1.148.931A20.7,20.7,0,0,0,43,38.112l2.172,1.3Z" transform="translate(0 -21.783)" fill="#1268f1"/>
    </g>
  </g>
</svg>
