<svg xmlns="http://www.w3.org/2000/svg" width="42" height="42" viewBox="0 0 42 42">
  <g id="Group_205935" data-name="Group 205935" transform="translate(-1098)">
    <rect id="Rectangle_189080" data-name="Rectangle 189080" width="42" height="42" rx="4" transform="translate(1098)" fill="#e9ebef" opacity="0"/>
    <g id="noun-order-location-3024868" transform="translate(1012.073 -159.556)">
      <g id="Group_205936" data-name="Group 205936" transform="translate(91.5 165)">
        <path id="Path_347058" data-name="Path 347058" d="M200.9,181.348l-.434-.473a58.748,58.748,0,0,1-4.293-5.289,9.968,9.968,0,0,1-1.234-2.215,6.208,6.208,0,0,1-.254-1,6.478,6.478,0,0,1-.09-1.066,6.131,6.131,0,0,1,.07-.93,6.306,6.306,0,0,1,12.544.93,6.632,6.632,0,0,1-.043.738q-.018.164-.047.328a6.721,6.721,0,0,1-.254.992,10.025,10.025,0,0,1-1.238,2.219,58.866,58.866,0,0,1-4.293,5.289Zm0-15.176a5.159,5.159,0,0,0-5.078,4.375,5.451,5.451,0,0,0-.055.758,4.98,4.98,0,0,0,.074.871,5.223,5.223,0,0,0,.207.809,9.266,9.266,0,0,0,1.094,1.938,54.019,54.019,0,0,0,3.762,4.68,55.4,55.4,0,0,0,3.762-4.68,8.994,8.994,0,0,0,1.094-1.938,5.112,5.112,0,0,0,.207-.809c.016-.086.027-.176.039-.262a5.142,5.142,0,0,0-5.106-5.742Z" transform="translate(-190.572 -165)" fill="#5f6c72" stroke="#5f6c72" stroke-width="0.5"/>
        <path id="Path_347059" data-name="Path 347059" d="M112.243,354.052H101.782l-.008-.578a1.953,1.953,0,0,0-3.906,0l-.008.578H93.742a2.308,2.308,0,0,1-1.551-.605,2.072,2.072,0,0,1-.691-1.535V338.356a2.231,2.231,0,0,1,2.242-2.156h2.945l.082.488a5.223,5.223,0,0,0,.207.809,9.267,9.267,0,0,0,1.094,1.938,54.016,54.016,0,0,0,3.762,4.68,55.4,55.4,0,0,0,3.762-4.68,8.994,8.994,0,0,0,1.094-1.938,5.113,5.113,0,0,0,.207-.809l.082-.488h3.141a2.119,2.119,0,0,1,2.125,2.156Zm-9.356-1.172h8.184V338.36a.957.957,0,0,0-.953-.984h-2.172q-.064.258-.152.5a10.026,10.026,0,0,1-1.238,2.219,58.864,58.864,0,0,1-4.293,5.289l-.43.473-.434-.473a58.747,58.747,0,0,1-4.293-5.289,9.968,9.968,0,0,1-1.234-2.215c-.059-.168-.109-.336-.152-.508H93.742a1.058,1.058,0,0,0-1.07.984v13.555a1.05,1.05,0,0,0,1.07.969h3.016a3.126,3.126,0,0,1,6.129,0Z" transform="translate(-91.5 -329.512)" fill="#5f6c72" stroke="#5f6c72" stroke-width="0.5"/>
        <path id="Path_347060" data-name="Path 347060" d="M661.525,705.25a3.129,3.129,0,0,1-3.125-3.125v-.043a3.125,3.125,0,0,1,6.25,0v.043A3.129,3.129,0,0,1,661.525,705.25Zm0-5.078a1.959,1.959,0,0,0-1.953,1.93v.023a1.953,1.953,0,0,0,3.906,0V702.1A1.959,1.959,0,0,0,661.525,700.172Z" transform="translate(-636.255 -678.14)" fill="#5f6c72" stroke="#5f6c72" stroke-width="0.5"/>
        <path id="Path_347061" data-name="Path 347061" d="M605.686,425.162h-5.621l-.008-.578a1.953,1.953,0,0,0-3.906,0l-.008.578H592.4V410.2h8.129l5.153,6.449v8.512Zm-4.516-1.172h3.344v-6.93l-4.543-5.688h-6.395V423.99h1.465a3.13,3.13,0,0,1,5.266-1.606A3.132,3.132,0,0,1,601.17,423.99Z" transform="translate(-572.833 -400.621)" fill="#5f6c72" stroke="#5f6c72" stroke-width="0.5"/>
        <path id="Path_347062" data-name="Path 347062" d="M227.725,705.25a3.129,3.129,0,0,1-3.125-3.125v-.043a3.125,3.125,0,0,1,6.25,0v.043A3.129,3.129,0,0,1,227.725,705.25Zm0-5.078a1.959,1.959,0,0,0-1.953,1.93v.023a1.953,1.953,0,0,0,3.906,0V702.1A1.962,1.962,0,0,0,227.725,700.172Z" transform="translate(-219.401 -678.14)" fill="#5f6c72" stroke="#5f6c72" stroke-width="0.5"/>
        <rect id="Rectangle_189121" data-name="Rectangle 189121" width="9" height="1" transform="translate(23.427 15.556)" fill="#5f6c72" stroke="#5f6c72" stroke-width="0.5"/>
        <path id="Path_347063" data-name="Path 347063" d="M306.608,279.016a2.008,2.008,0,1,1,2.008-2.008A2.01,2.01,0,0,1,306.608,279.016Zm0-2.84a.836.836,0,1,0,.836.836A.837.837,0,0,0,306.608,276.176Z" transform="translate(-296.275 -270.703)" fill="#5f6c72" stroke="#5f6c72" stroke-width="0.5"/>
      </g>
    </g>
  </g>
</svg>
