<svg xmlns="http://www.w3.org/2000/svg" xmlns:xlink="http://www.w3.org/1999/xlink" width="125.679" height="111.885" viewBox="0 0 125.679 111.885">
  <defs>
    <clipPath id="clip-path">
      <rect id="Rectangle_189083" data-name="Rectangle 189083" width="125.679" height="111.885" fill="none"/>
    </clipPath>
  </defs>
  <g id="Group_206358" data-name="Group 206358" transform="translate(-510 -2367)">
    <g id="Group_206350" data-name="Group 206350" transform="translate(437.225 1630.668)" opacity="0.514">
      <g id="Group_205784" data-name="Group 205784" transform="translate(72.775 736.332)">
        <g id="Group_205783" data-name="Group 205783" clip-path="url(#clip-path)">
          <path id="Path_345649" data-name="Path 345649" d="M120.126,51.636l-12.82-12.82V20.691a6.086,6.086,0,0,0-6.084-6.084H83.1L70.276,1.786a6.083,6.083,0,0,0-8.61,0l-12.82,12.82H30.72a6.088,6.088,0,0,0-6.093,6.084V38.816l-12.82,12.82a6.1,6.1,0,0,0,0,8.61l12.82,12.82V91.2a6.088,6.088,0,0,0,6.093,6.084H48.846l12.82,12.82a6.1,6.1,0,0,0,8.61,0L83.1,97.286h18.125a6.086,6.086,0,0,0,6.084-6.084V73.067l12.82-12.82a6.083,6.083,0,0,0,0-8.61M112.259,60.8,102.136,70.921V85.245a6.872,6.872,0,0,1-6.872,6.862H80.951L70.829,102.229a6.852,6.852,0,0,1-9.715,0L50.991,92.107H36.678a6.872,6.872,0,0,1-6.872-6.862V70.921L19.684,60.8a6.874,6.874,0,0,1,0-9.715L29.806,40.962V26.648a6.88,6.88,0,0,1,6.872-6.872H50.991L61.114,9.654a6.875,6.875,0,0,1,9.715,0L80.951,19.776H95.265a6.88,6.88,0,0,1,6.872,6.872V40.962l10.122,10.122a6.875,6.875,0,0,1,0,9.715" transform="translate(-3.131 0)" fill="#e0ecff"/>
          <path id="Path_345650" data-name="Path 345650" d="M117.741,59.416a6.829,6.829,0,0,1-2.01,4.853L105.608,74.391V88.714a6.872,6.872,0,0,1-6.872,6.862H84.423L74.3,105.7a6.853,6.853,0,0,1-9.714,0L54.464,95.576H40.15a6.872,6.872,0,0,1-6.872-6.862V74.391L23.156,64.269a6.875,6.875,0,0,1,0-9.714L33.278,44.432V30.118a6.88,6.88,0,0,1,6.872-6.872H54.464L64.586,13.124a6.875,6.875,0,0,1,9.714,0L84.423,23.246H98.737a6.88,6.88,0,0,1,6.872,6.872V44.432l10.123,10.122a6.85,6.85,0,0,1,2.01,4.862" transform="translate(-6.603 -3.47)" fill="#fff"/>
          <path id="Path_345651" data-name="Path 345651" d="M69.438,13.83a4.131,4.131,0,0,1,2.941,1.215L82.5,25.167l.8.8H98.736a4.16,4.16,0,0,1,4.155,4.156V45.557l.8.8L113.8,56.468a4.157,4.157,0,0,1,.007,5.88L103.687,72.47l-.8.8V88.714a4.155,4.155,0,0,1-4.155,4.146H83.3l-.8.8L72.372,103.785a4.137,4.137,0,0,1-5.867-.007L56.383,93.656l-.8-.8H40.149a4.156,4.156,0,0,1-4.155-4.146V73.266l-.8-.8L25.075,62.348a4.158,4.158,0,0,1,0-5.874L35.2,46.352l.8-.8V30.118a4.161,4.161,0,0,1,4.155-4.156h15.44l.8-.8L66.505,15.044a4.119,4.119,0,0,1,2.933-1.215m0-2.716a6.827,6.827,0,0,0-4.853,2.01L54.463,23.246H40.149a6.879,6.879,0,0,0-6.871,6.872V44.432L23.155,54.554a6.875,6.875,0,0,0,0,9.714L33.277,74.391V88.714a6.872,6.872,0,0,0,6.871,6.863H54.463L64.585,105.7a6.852,6.852,0,0,0,9.714,0L84.422,95.577H98.736a6.872,6.872,0,0,0,6.872-6.863V74.391L115.73,64.269a6.875,6.875,0,0,0,0-9.714L105.608,44.432V30.118a6.88,6.88,0,0,0-6.872-6.872H84.422L74.3,13.124a6.833,6.833,0,0,0-4.862-2.01" transform="translate(-6.603 -3.47)" fill="#c6dcff"/>
        </g>
      </g>
    </g>
    <g id="Group_206351" data-name="Group 206351" transform="translate(551.641 2393.787)">
      <path id="Path_346643" data-name="Path 346643" d="M189.433,158.618a.743.743,0,0,0-.267-.009,1.773,1.773,0,0,1-1.568-1.758.78.78,0,0,0-1.56,0,3.336,3.336,0,0,0,2.453,3.212v.78a.78.78,0,1,0,1.56,0v-.733a3.33,3.33,0,0,0-.682-6.59,1.771,1.771,0,1,1,1.771-1.771.78.78,0,1,0,1.56,0,3.336,3.336,0,0,0-2.648-3.26v-.71a.78.78,0,0,0-1.56,0v.757a3.33,3.33,0,0,0,.877,6.543,1.77,1.77,0,0,1,.065,3.538Zm0,0" transform="translate(-167.577 -132.67)" fill="#1268f1"/>
      <path id="Path_346644" data-name="Path 346644" d="M104.195,117.8A11.309,11.309,0,1,0,115.5,106.492,11.309,11.309,0,0,0,104.195,117.8Zm11.309-9.749a9.749,9.749,0,1,1-9.749,9.749A9.749,9.749,0,0,1,115.5,108.052Zm0,0" transform="translate(-93.713 -96.111)" fill="#1268f1"/>
      <path id="Path_346645" data-name="Path 346645" d="M36.945,34.922l-6.109,2.887a4.976,4.976,0,0,0-4.242-2.618l-5.64-.155a5.956,5.956,0,0,1-2.563-.662l-.574-.3a10.122,10.122,0,0,0-9.376.01l.036-1.3a.78.78,0,0,0-.758-.8l-6.184-.17a.78.78,0,0,0-.8.758L.36,46.145a.78.78,0,0,0,.758.8l6.184.17h.021a.78.78,0,0,0,.78-.759l.018-.649,1.607-.86a2.756,2.756,0,0,1,2.057-.225l9.594,2.693.051.013a10.27,10.27,0,0,0,2.108.217,10.405,10.405,0,0,0,4.347-.949.723.723,0,0,0,.1-.053l13.91-9a.78.78,0,0,0,.255-1.039,3.94,3.94,0,0,0-5.2-1.585Zm-35,10.486L2.271,33.4l4.625.127-.33,12.012Zm25.242-.2a8.842,8.842,0,0,1-5.407.6l-9.568-2.686a4.312,4.312,0,0,0-3.215.351l-.821.44.22-7.987a8.573,8.573,0,0,1,8.709-.465l.574.3a7.532,7.532,0,0,0,3.238.836l5.64.155A3.421,3.421,0,0,1,29.8,39.476l-8.4-.232a.78.78,0,1,0-.043,1.559l9.271.255h.022a.78.78,0,0,0,.779-.759,4.95,4.95,0,0,0-.075-1.012l6.266-2.961.018-.009a2.383,2.383,0,0,1,2.695.377ZM22.571,8.189V.78a.78.78,0,1,0-1.56,0V8.189a.78.78,0,1,0,1.56,0Zm5.849,0V4.679a.78.78,0,0,0-1.56,0V8.189a.78.78,0,0,0,1.56,0Zm-11.7,0V4.679a.78.78,0,1,0-1.56,0V8.189a.78.78,0,1,0,1.56,0Zm0,0" transform="translate(0 0)" fill="#1268f1"/>
    </g>
  </g>
</svg>
