<svg xmlns="http://www.w3.org/2000/svg" xmlns:xlink="http://www.w3.org/1999/xlink" width="125.679" height="111.885" viewBox="0 0 125.679 111.885">
  <defs>
    <clipPath id="clip-path">
      <rect id="Rectangle_189083" data-name="Rectangle 189083" width="125.679" height="111.885" fill="none"/>
    </clipPath>
  </defs>
  <g id="Group_206357" data-name="Group 206357" transform="translate(-290 -2367)">
    <g id="Group_206349" data-name="Group 206349" transform="translate(217.225 1630.668)" opacity="0.514">
      <g id="Group_205784" data-name="Group 205784" transform="translate(72.775 736.332)">
        <g id="Group_205783" data-name="Group 205783" clip-path="url(#clip-path)">
          <path id="Path_345649" data-name="Path 345649" d="M120.126,51.636l-12.82-12.82V20.691a6.086,6.086,0,0,0-6.084-6.084H83.1L70.276,1.786a6.083,6.083,0,0,0-8.61,0l-12.82,12.82H30.72a6.088,6.088,0,0,0-6.093,6.084V38.816l-12.82,12.82a6.1,6.1,0,0,0,0,8.61l12.82,12.82V91.2a6.088,6.088,0,0,0,6.093,6.084H48.846l12.82,12.82a6.1,6.1,0,0,0,8.61,0L83.1,97.286h18.125a6.086,6.086,0,0,0,6.084-6.084V73.067l12.82-12.82a6.083,6.083,0,0,0,0-8.61M112.259,60.8,102.136,70.921V85.245a6.872,6.872,0,0,1-6.872,6.862H80.951L70.829,102.229a6.852,6.852,0,0,1-9.715,0L50.991,92.107H36.678a6.872,6.872,0,0,1-6.872-6.862V70.921L19.684,60.8a6.874,6.874,0,0,1,0-9.715L29.806,40.962V26.648a6.88,6.88,0,0,1,6.872-6.872H50.991L61.114,9.654a6.875,6.875,0,0,1,9.715,0L80.951,19.776H95.265a6.88,6.88,0,0,1,6.872,6.872V40.962l10.122,10.122a6.875,6.875,0,0,1,0,9.715" transform="translate(-3.131 0)" fill="#e0ecff"/>
          <path id="Path_345650" data-name="Path 345650" d="M117.741,59.416a6.829,6.829,0,0,1-2.01,4.853L105.608,74.391V88.714a6.872,6.872,0,0,1-6.872,6.862H84.423L74.3,105.7a6.853,6.853,0,0,1-9.714,0L54.464,95.576H40.15a6.872,6.872,0,0,1-6.872-6.862V74.391L23.156,64.269a6.875,6.875,0,0,1,0-9.714L33.278,44.432V30.118a6.88,6.88,0,0,1,6.872-6.872H54.464L64.586,13.124a6.875,6.875,0,0,1,9.714,0L84.423,23.246H98.737a6.88,6.88,0,0,1,6.872,6.872V44.432l10.123,10.122a6.85,6.85,0,0,1,2.01,4.862" transform="translate(-6.603 -3.47)" fill="#fff"/>
          <path id="Path_345651" data-name="Path 345651" d="M69.438,13.83a4.131,4.131,0,0,1,2.941,1.215L82.5,25.167l.8.8H98.736a4.16,4.16,0,0,1,4.155,4.156V45.557l.8.8L113.8,56.468a4.157,4.157,0,0,1,.007,5.88L103.687,72.47l-.8.8V88.714a4.155,4.155,0,0,1-4.155,4.146H83.3l-.8.8L72.372,103.785a4.137,4.137,0,0,1-5.867-.007L56.383,93.656l-.8-.8H40.149a4.156,4.156,0,0,1-4.155-4.146V73.266l-.8-.8L25.075,62.348a4.158,4.158,0,0,1,0-5.874L35.2,46.352l.8-.8V30.118a4.161,4.161,0,0,1,4.155-4.156h15.44l.8-.8L66.505,15.044a4.119,4.119,0,0,1,2.933-1.215m0-2.716a6.827,6.827,0,0,0-4.853,2.01L54.463,23.246H40.149a6.879,6.879,0,0,0-6.871,6.872V44.432L23.155,54.554a6.875,6.875,0,0,0,0,9.714L33.277,74.391V88.714a6.872,6.872,0,0,0,6.871,6.863H54.463L64.585,105.7a6.852,6.852,0,0,0,9.714,0L84.422,95.577H98.736a6.872,6.872,0,0,0,6.872-6.863V74.391L115.73,64.269a6.875,6.875,0,0,0,0-9.714L105.608,44.432V30.118a6.88,6.88,0,0,0-6.872-6.872H84.422L74.3,13.124a6.833,6.833,0,0,0-4.862-2.01" transform="translate(-6.603 -3.47)" fill="#c6dcff"/>
        </g>
      </g>
    </g>
    <g id="Group_206352" data-name="Group 206352" transform="translate(330 2399.023)">
      <g id="noun-percentage-2090900" transform="translate(0 0)">
        <g id="Layer_2" data-name="Layer 2">
          <g id="Layer_1" data-name="Layer 1">
            <rect id="Rectangle_189085" data-name="Rectangle 189085" width="44.164" height="44.164" transform="translate(0.539 0.539)" fill="none" stroke="#fff" stroke-width="1"/>
            <path id="Path_345679" data-name="Path 345679" d="M22.821,45.641A22.821,22.821,0,1,1,45.641,22.821,22.821,22.821,0,0,1,22.821,45.641ZM22.821,3A19.818,19.818,0,1,0,42.638,22.821,19.818,19.818,0,0,0,22.821,3Z" fill="#1268f1" stroke="#fff" stroke-width="1"/>
            <path id="Path_345680" data-name="Path 345680" d="M31.4,47.11a1.5,1.5,0,0,1-1.082-2.542L46.172,28.1a1.5,1.5,0,1,1,2.159,2.081L32.484,46.649A1.506,1.506,0,0,1,31.4,47.11Z" transform="translate(-16.254 -14.992)" fill="#1268f1" stroke="#fff" stroke-width="1"/>
            <path id="Path_345681" data-name="Path 345681" d="M29.284,34.806a4.969,4.969,0,0,1-.091-9.936h.1a4.969,4.969,0,0,1,.091,9.936Zm0-6.938h-.037a1.987,1.987,0,1,0,.037,0Z" transform="translate(-13.219 -13.519)" fill="#1268f1" stroke="#fff" stroke-width="1"/>
            <path id="Path_345682" data-name="Path 345682" d="M58.993,63.3a4.97,4.97,0,0,1-.1-9.936H59a4.969,4.969,0,0,1,.087,9.936Zm0-6.933h-.037a1.967,1.967,0,1,0,1.456,3.327,1.94,1.94,0,0,0,.548-1.4A1.967,1.967,0,0,0,58.993,56.363Z" transform="translate(-29.418 -29.006)" fill="#1268f1" stroke="#fff" stroke-width="1"/>
          </g>
        </g>
      </g>
    </g>
  </g>
</svg>
