<svg xmlns="http://www.w3.org/2000/svg" width="42" height="42" viewBox="0 0 42 42">
  <g id="Group_205934" data-name="Group 205934" transform="translate(-1098)">
    <rect id="Rectangle_189080" data-name="Rectangle 189080" width="42" height="42" rx="4" transform="translate(1098)" fill="#e9ebef" opacity="0"/>
    <g id="noun-customer-support-6189511" transform="translate(1097.813 -5.892)">
      <path id="Path_347176" data-name="Path 347176" d="M31.646,25.13a9.851,9.851,0,0,0-6.685,17.089v4.294l5.557-1.741a9.4,9.4,0,0,0,1.128.068,9.855,9.855,0,0,0,0-19.71Zm0,18.582a9.024,9.024,0,0,1-1.128-.071h-.124l-4.305,1.369v-3.3l-.2-.165a8.723,8.723,0,1,1,5.753,2.166Z" transform="translate(-9.542 -6.862)" fill="#5e6c72" stroke="#5e6c72" stroke-width="0.3"/>
      <path id="Path_347177" data-name="Path 347177" d="M35.64,23.8h-.229A13.987,13.987,0,0,0,8.8,23.8H8.737A2.233,2.233,0,0,0,6.5,26.032v4.493a2.233,2.233,0,0,0,2.233,2.233h1.88a1.32,1.32,0,0,0,1.316-1.316V25.115A1.32,1.32,0,0,0,10.613,23.8H10a12.844,12.844,0,0,1,24.2,0H33.76a1.316,1.316,0,0,0-1.316,1.316v6.328a1.316,1.316,0,0,0,1.316,1.316h1.88a2.256,2.256,0,0,0,2.233-2.233V26.032A2.256,2.256,0,0,0,35.64,23.8ZM10.8,25.115v6.328a.188.188,0,0,1-.188.188H8.733a1.105,1.105,0,0,1-1.105-1.105V26.032a1.105,1.105,0,0,1,1.105-1.105h1.88a.188.188,0,0,1,.184.188Zm25.944,5.411a1.105,1.105,0,0,1-1.105,1.105H33.76a.188.188,0,0,1-.188-.188V25.115a.188.188,0,0,1,.188-.188h1.88a1.105,1.105,0,0,1,1.105,1.105Z" transform="translate(0)" fill="#5e6c72" stroke="#5e6c72" stroke-width="0.3"/>
      <path id="Path_347178" data-name="Path 347178" d="M32.65,46.37a1.88,1.88,0,1,0,1.88,1.88,1.88,1.88,0,0,0-1.88-1.88Zm0,2.632a.312.312,0,1,1,0,.008Z" transform="translate(-15.145 -20.116)" fill="#5e6c72" stroke="#5e6c72" stroke-width="0.3"/>
      <path id="Path_347179" data-name="Path 347179" d="M44.88,46.37a1.88,1.88,0,1,0,1.88,1.88,1.88,1.88,0,0,0-1.88-1.88Zm0,2.632a.312.312,0,1,1,0,.008Z" transform="translate(-22.776 -20.116)" fill="#5e6c72" stroke="#5e6c72" stroke-width="0.3"/>
      <path id="Path_347180" data-name="Path 347180" d="M57.11,46.37a1.88,1.88,0,1,0,1.88,1.88,1.88,1.88,0,0,0-1.88-1.88Zm0,2.632a.312.312,0,1,1,0,.008Z" transform="translate(-30.408 -20.116)" fill="#5e6c72" stroke="#5e6c72" stroke-width="0.3"/>
    </g>
  </g>
</svg>
