<svg viewBox="0 0 30 30" height="30" width="30" xmlns="http://www.w3.org/2000/svg">
  <g transform="translate(-984 -631)" data-sanitized-data-name="Group 205565" data-name="Group 205565" id="Group_205565">
    <rect fill="none" transform="translate(984 631)" height="30" width="30" data-sanitized-data-name="Rectangle 187227" data-name="Rectangle 187227" id="Rectangle_187227"></rect>
    <path transform="translate(980 626.003)" d="M21.79,34.167a3.27,3.27,0,0,1-1.886-.991c-.362-.3-.858-.708-1.1-.708s-.736.409-1.1.708c-.649.535-1.385,1.143-2.2.956-.837-.192-1.246-1.078-1.608-1.86a3.16,3.16,0,0,0-.648-1.077,3.074,3.074,0,0,0-1.268.157,2.781,2.781,0,0,1-2.416-.105,2.845,2.845,0,0,1-.639-2.359,3.179,3.179,0,0,0-.126-1.272,3.111,3.111,0,0,0-1.2-.4c-.834-.18-1.778-.384-2.148-1.157A2.829,2.829,0,0,1,5.9,23.671a3.16,3.16,0,0,0,.437-1.221c-.046-.205-.553-.6-.888-.864C4.77,21.055,4,20.453,4,19.582s.77-1.473,1.449-2c.335-.262.842-.659.888-.864A3.167,3.167,0,0,0,5.9,15.492a2.827,2.827,0,0,1-.435-2.387c.37-.773,1.314-.977,2.148-1.157a3.113,3.113,0,0,0,1.2-.4,3.169,3.169,0,0,0,.127-1.273,2.847,2.847,0,0,1,.639-2.358,2.781,2.781,0,0,1,2.416-.105,3.1,3.1,0,0,0,1.268.158,3.157,3.157,0,0,0,.648-1.077c.361-.782.77-1.668,1.607-1.86.81-.185,1.547.421,2.2.956.362.3.859.708,1.1.708s.736-.409,1.1-.707c.649-.536,1.385-1.143,2.2-.956.836.192,1.246,1.078,1.607,1.86a3.16,3.16,0,0,0,.648,1.077,3.1,3.1,0,0,0,1.268-.158,2.782,2.782,0,0,1,2.416.105,2.845,2.845,0,0,1,.639,2.359,3.178,3.178,0,0,0,.126,1.272,3.117,3.117,0,0,0,1.2.4c.834.18,1.778.383,2.148,1.157a2.829,2.829,0,0,1-.436,2.387,3.162,3.162,0,0,0-.437,1.221c.046.206.553.6.888.864.679.531,1.448,1.133,1.448,2s-.77,1.473-1.449,2c-.335.262-.842.658-.888.865a3.166,3.166,0,0,0,.437,1.221,2.827,2.827,0,0,1,.435,2.387c-.37.773-1.314.977-2.148,1.156a3.123,3.123,0,0,0-1.2.4,3.176,3.176,0,0,0-.126,1.273,2.847,2.847,0,0,1-.639,2.358,2.782,2.782,0,0,1-2.416.105,3.086,3.086,0,0,0-1.268-.157,3.154,3.154,0,0,0-.648,1.076c-.361.782-.77,1.669-1.607,1.86a1.385,1.385,0,0,1-.311.035Zm-8.741-4.36a1.791,1.791,0,0,1,.793.165A3.3,3.3,0,0,1,15.126,31.7c.16.346.492,1.066.685,1.11s.765-.452,1.046-.683a3.339,3.339,0,0,1,1.95-1.014,3.34,3.34,0,0,1,1.95,1.014c.281.231.849.706,1.046.683.192-.044.525-.764.684-1.11a3.3,3.3,0,0,1,1.284-1.726,3.288,3.288,0,0,1,2.167.061c.362.088,1.116.27,1.261.154s.138-.9.133-1.281a3.348,3.348,0,0,1,.42-2.136,3.28,3.28,0,0,1,1.966-.882c.368-.079,1.134-.245,1.218-.419s-.265-.86-.429-1.194a3.376,3.376,0,0,1-.544-2.125,3.274,3.274,0,0,1,1.375-1.635c.325-.254.929-.726.929-.932s-.6-.679-.928-.933a3.272,3.272,0,0,1-1.376-1.635,3.379,3.379,0,0,1,.544-2.125c.165-.334.507-1.03.429-1.194s-.849-.34-1.217-.419a3.283,3.283,0,0,1-1.967-.881,3.349,3.349,0,0,1-.42-2.136c0-.377.014-1.163-.133-1.281s-.9.066-1.262.154a3.288,3.288,0,0,1-2.167.06,3.3,3.3,0,0,1-1.284-1.726C22.328,7.119,22,6.4,21.8,6.355s-.765.452-1.046.683a3.336,3.336,0,0,1-1.95,1.014,3.339,3.339,0,0,1-1.95-1.014c-.281-.231-.866-.713-1.046-.683s-.525.764-.685,1.11a3.3,3.3,0,0,1-1.283,1.726,3.289,3.289,0,0,1-2.167-.06c-.362-.088-1.117-.27-1.261-.154s-.138.9-.133,1.281a3.346,3.346,0,0,1-.42,2.136,3.28,3.28,0,0,1-1.966.882c-.368.079-1.134.245-1.218.419s.265.86.429,1.194a3.376,3.376,0,0,1,.544,2.125,3.274,3.274,0,0,1-1.375,1.635c-.325.254-.928.726-.928.933s.6.679.928.933A3.271,3.271,0,0,1,7.65,22.15a3.379,3.379,0,0,1-.544,2.125c-.165.334-.507,1.03-.429,1.194s.849.34,1.218.42a3.281,3.281,0,0,1,1.966.882,3.348,3.348,0,0,1,.42,2.136c0,.377-.014,1.163.133,1.281s.9-.066,1.262-.154A6.031,6.031,0,0,1,13.049,29.808Zm1.522-5,9.423-9.5a.682.682,0,0,0,0-.959.669.669,0,0,0-.952,0l-9.423,9.5a.682.682,0,0,0,0,.959.669.669,0,0,0,.952,0Zm.87-6.245A2.374,2.374,0,1,1,17.8,16.19,2.368,2.368,0,0,1,15.442,18.565Zm0-3.392a1.017,1.017,0,1,0,1.01,1.017A1.015,1.015,0,0,0,15.442,15.173Zm6.73,10.175a2.374,2.374,0,1,1,2.356-2.374A2.368,2.368,0,0,1,22.172,25.348Zm0-3.392a1.017,1.017,0,1,0,1.01,1.017A1.015,1.015,0,0,0,22.172,21.956Z" id="Discount"></path>
  </g>
</svg>
